<mxfile host="app.diagrams.net" agent="Mozilla/5.0 (Windows NT 10.0; Win64; x64) AppleWebKit/537.36 (KHTML, like Gecko) Chrome/135.0.0.0 Safari/537.36" version="26.2.14">
  <diagram name="Page-1" id="rlBW6f8aqnAtLIDjEwtb">
    <mxGraphModel dx="1052" dy="1904" grid="1" gridSize="10" guides="1" tooltips="1" connect="1" arrows="1" fold="1" page="1" pageScale="1" pageWidth="827" pageHeight="1169" math="0" shadow="0">
      <root>
        <mxCell id="0" />
        <mxCell id="1" parent="0" />
        <mxCell id="0AANPD9np3o0rMgHHcX3-34" value="" style="whiteSpace=wrap;html=1;aspect=fixed;" parent="1" vertex="1">
          <mxGeometry y="-200" width="870" height="870" as="geometry" />
        </mxCell>
        <mxCell id="0AANPD9np3o0rMgHHcX3-17" value="" style="rounded=0;whiteSpace=wrap;html=1;" parent="1" vertex="1">
          <mxGeometry x="110" y="-150" width="660" height="740" as="geometry" />
        </mxCell>
        <mxCell id="0AANPD9np3o0rMgHHcX3-2" value="Essaie produit&amp;nbsp;" style="ellipse;whiteSpace=wrap;html=1;" parent="1" vertex="1">
          <mxGeometry x="240" y="120" width="120" height="80" as="geometry" />
        </mxCell>
        <mxCell id="0AANPD9np3o0rMgHHcX3-18" style="rounded=0;orthogonalLoop=1;jettySize=auto;html=1;endArrow=none;startFill=0;fillColor=#a0522d;strokeColor=#6D1F00;" parent="1" target="0AANPD9np3o0rMgHHcX3-2" edge="1">
          <mxGeometry relative="1" as="geometry">
            <mxPoint x="90" y="130" as="sourcePoint" />
          </mxGeometry>
        </mxCell>
        <mxCell id="0AANPD9np3o0rMgHHcX3-3" value="Client" style="shape=umlActor;verticalLabelPosition=bottom;verticalAlign=middle;html=1;outlineConnect=0;fillColor=#a0522d;strokeColor=#6D1F00;gradientColor=#ea6b66;rounded=0;align=center;fontFamily=Helvetica;fontSize=11;fontColor=default;labelBackgroundColor=default;" parent="1" vertex="1">
          <mxGeometry x="60" y="110" width="30" height="60" as="geometry" />
        </mxCell>
        <mxCell id="0AANPD9np3o0rMgHHcX3-4" value="sélectionne le produit" style="ellipse;whiteSpace=wrap;html=1;" parent="1" vertex="1">
          <mxGeometry x="240" y="240" width="120" height="80" as="geometry" />
        </mxCell>
        <mxCell id="0AANPD9np3o0rMgHHcX3-5" value="Demande informations&amp;nbsp;" style="ellipse;whiteSpace=wrap;html=1;" parent="1" vertex="1">
          <mxGeometry x="240" y="10" width="120" height="80" as="geometry" />
        </mxCell>
        <mxCell id="0AANPD9np3o0rMgHHcX3-6" value="Règle l&#39;article" style="ellipse;whiteSpace=wrap;html=1;" parent="1" vertex="1">
          <mxGeometry x="420" y="180" width="120" height="80" as="geometry" />
        </mxCell>
        <mxCell id="0AANPD9np3o0rMgHHcX3-7" style="rounded=0;orthogonalLoop=1;jettySize=auto;html=1;entryX=0.992;entryY=0.625;entryDx=0;entryDy=0;entryPerimeter=0;dashed=1;strokeColor=#6D1F00;align=center;verticalAlign=middle;fontFamily=Helvetica;fontSize=11;fontColor=default;labelBackgroundColor=default;startFill=0;endArrow=none;fillColor=#a0522d;" parent="1" source="0AANPD9np3o0rMgHHcX3-6" target="0AANPD9np3o0rMgHHcX3-4" edge="1">
          <mxGeometry relative="1" as="geometry" />
        </mxCell>
        <mxCell id="0AANPD9np3o0rMgHHcX3-8" value="extends" style="edgeLabel;html=1;align=center;verticalAlign=middle;resizable=0;points=[];rounded=0;strokeColor=#6D1F00;fontFamily=Helvetica;fontSize=11;fontColor=default;labelBackgroundColor=default;fillColor=#a0522d;" parent="0AANPD9np3o0rMgHHcX3-7" vertex="1" connectable="0">
          <mxGeometry x="-0.0241" y="2" relative="1" as="geometry">
            <mxPoint as="offset" />
          </mxGeometry>
        </mxCell>
        <mxCell id="0AANPD9np3o0rMgHHcX3-13" style="rounded=0;orthogonalLoop=1;jettySize=auto;html=1;entryX=1;entryY=0.5;entryDx=0;entryDy=0;dashed=1;startArrow=classic;startFill=0;endArrow=none;strokeColor=#6D1F00;align=center;verticalAlign=middle;fontFamily=Helvetica;fontSize=11;fontColor=default;labelBackgroundColor=default;fillColor=#a0522d;" parent="1" source="0AANPD9np3o0rMgHHcX3-9" target="0AANPD9np3o0rMgHHcX3-6" edge="1">
          <mxGeometry relative="1" as="geometry" />
        </mxCell>
        <mxCell id="0AANPD9np3o0rMgHHcX3-14" value="include" style="edgeLabel;html=1;align=center;verticalAlign=middle;resizable=0;points=[];rounded=0;strokeColor=#6D1F00;fontFamily=Helvetica;fontSize=11;fontColor=default;labelBackgroundColor=default;fillColor=#a0522d;" parent="0AANPD9np3o0rMgHHcX3-13" vertex="1" connectable="0">
          <mxGeometry x="-0.0233" y="-4" relative="1" as="geometry">
            <mxPoint as="offset" />
          </mxGeometry>
        </mxCell>
        <mxCell id="0AANPD9np3o0rMgHHcX3-9" value="Choisi moyen de paiement (acceptée)" style="ellipse;whiteSpace=wrap;html=1;" parent="1" vertex="1">
          <mxGeometry x="620" y="220" width="120" height="80" as="geometry" />
        </mxCell>
        <mxCell id="0AANPD9np3o0rMgHHcX3-11" style="rounded=0;orthogonalLoop=1;jettySize=auto;html=1;dashed=1;strokeColor=#6D1F00;align=center;verticalAlign=middle;fontFamily=Helvetica;fontSize=11;fontColor=default;labelBackgroundColor=default;startFill=0;endArrow=none;fillColor=#a0522d;" parent="1" source="0AANPD9np3o0rMgHHcX3-10" target="0AANPD9np3o0rMgHHcX3-6" edge="1">
          <mxGeometry relative="1" as="geometry" />
        </mxCell>
        <mxCell id="0AANPD9np3o0rMgHHcX3-12" value="extends" style="edgeLabel;html=1;align=center;verticalAlign=middle;resizable=0;points=[];rounded=0;strokeColor=#6D1F00;fontFamily=Helvetica;fontSize=11;fontColor=default;labelBackgroundColor=default;fillColor=#a0522d;" parent="0AANPD9np3o0rMgHHcX3-11" vertex="1" connectable="0">
          <mxGeometry x="-0.0615" y="3" relative="1" as="geometry">
            <mxPoint as="offset" />
          </mxGeometry>
        </mxCell>
        <mxCell id="0AANPD9np3o0rMgHHcX3-10" value="Peut avoir une remise" style="ellipse;whiteSpace=wrap;html=1;" parent="1" vertex="1">
          <mxGeometry x="550" y="90" width="120" height="80" as="geometry" />
        </mxCell>
        <mxCell id="0AANPD9np3o0rMgHHcX3-15" value="Processus de vente dans une boutique" style="text;html=1;align=center;verticalAlign=middle;whiteSpace=wrap;rounded=0;fontSize=13;" parent="1" vertex="1">
          <mxGeometry x="110" y="-150" width="130" height="40" as="geometry" />
        </mxCell>
        <mxCell id="0AANPD9np3o0rMgHHcX3-19" value="Gérante" style="shape=umlActor;verticalLabelPosition=bottom;verticalAlign=top;html=1;outlineConnect=0;fillColor=#fad9d5;strokeColor=#ae4132;" parent="1" vertex="1">
          <mxGeometry x="50" y="360" width="30" height="60" as="geometry" />
        </mxCell>
        <mxCell id="0AANPD9np3o0rMgHHcX3-20" value="Gère le stock&amp;nbsp;" style="ellipse;whiteSpace=wrap;html=1;" parent="1" vertex="1">
          <mxGeometry x="240" y="350" width="120" height="80" as="geometry" />
        </mxCell>
        <mxCell id="0AANPD9np3o0rMgHHcX3-28" style="rounded=0;orthogonalLoop=1;jettySize=auto;html=1;endArrow=none;startFill=0;entryX=1;entryY=0.3333333333333333;entryDx=0;entryDy=0;entryPerimeter=0;fillColor=#fad9d5;strokeColor=#ae4132;" parent="1" source="0AANPD9np3o0rMgHHcX3-23" target="0AANPD9np3o0rMgHHcX3-19" edge="1">
          <mxGeometry relative="1" as="geometry">
            <mxPoint x="100" y="390" as="targetPoint" />
          </mxGeometry>
        </mxCell>
        <mxCell id="0AANPD9np3o0rMgHHcX3-23" value="Encaisse" style="ellipse;whiteSpace=wrap;html=1;" parent="1" vertex="1">
          <mxGeometry x="240" y="480" width="120" height="80" as="geometry" />
        </mxCell>
        <mxCell id="0AANPD9np3o0rMgHHcX3-24" style="rounded=0;orthogonalLoop=1;jettySize=auto;html=1;entryX=1;entryY=0.3333333333333333;entryDx=0;entryDy=0;entryPerimeter=0;endArrow=none;startFill=0;fillColor=#a0522d;strokeColor=#6D1F00;" parent="1" source="0AANPD9np3o0rMgHHcX3-4" target="0AANPD9np3o0rMgHHcX3-3" edge="1">
          <mxGeometry relative="1" as="geometry" />
        </mxCell>
        <mxCell id="0AANPD9np3o0rMgHHcX3-26" style="rounded=0;orthogonalLoop=1;jettySize=auto;html=1;endArrow=none;startFill=0;exitX=0;exitY=0.425;exitDx=0;exitDy=0;exitPerimeter=0;fillColor=#a0522d;strokeColor=#6D1F00;" parent="1" source="0AANPD9np3o0rMgHHcX3-5" edge="1">
          <mxGeometry relative="1" as="geometry">
            <mxPoint x="241" y="154" as="sourcePoint" />
            <mxPoint x="90" y="130" as="targetPoint" />
          </mxGeometry>
        </mxCell>
        <mxCell id="0AANPD9np3o0rMgHHcX3-29" style="rounded=0;orthogonalLoop=1;jettySize=auto;html=1;entryX=1;entryY=0.3333333333333333;entryDx=0;entryDy=0;entryPerimeter=0;endArrow=none;startFill=0;fillColor=#f8cecc;strokeColor=#b85450;gradientColor=#ea6b66;" parent="1" source="0AANPD9np3o0rMgHHcX3-20" target="0AANPD9np3o0rMgHHcX3-19" edge="1">
          <mxGeometry relative="1" as="geometry" />
        </mxCell>
        <mxCell id="0AANPD9np3o0rMgHHcX3-32" style="rounded=0;orthogonalLoop=1;jettySize=auto;html=1;exitX=0;exitY=0.5;exitDx=0;exitDy=0;endArrow=none;startFill=0;fillColor=#a0522d;strokeColor=#6D1F00;" parent="1" source="0AANPD9np3o0rMgHHcX3-30" edge="1">
          <mxGeometry relative="1" as="geometry">
            <mxPoint x="90" y="130" as="targetPoint" />
          </mxGeometry>
        </mxCell>
        <mxCell id="0AANPD9np3o0rMgHHcX3-30" value="Parcours différent rayons" style="ellipse;whiteSpace=wrap;html=1;" parent="1" vertex="1">
          <mxGeometry x="240" y="-90" width="120" height="80" as="geometry" />
        </mxCell>
      </root>
    </mxGraphModel>
  </diagram>
</mxfile>
